<?xml version="1.0" encoding="UTF-8"?>
<svg width="230px" height="9px" viewBox="0 0 230 9" version="1.1" xmlns="http://www.w3.org/2000/svg" xmlns:xlink="http://www.w3.org/1999/xlink">
    <!-- Generator: Sketch 46.2 (44496) - http://www.bohemiancoding.com/sketch -->
    <title>Fill 1</title>
    <desc>Created with Sketch.</desc>
    <defs></defs>
    <g id="Page-1" stroke="none" stroke-width="1" fill="none" fill-rule="evenodd">
        <g id="iPhone-7" transform="translate(-219.000000, -183.000000)" fill="#000000">
            <g id="Page-1" transform="translate(219.000000, 183.000000)">
                <path d="M-0.0004,3.14376 C1.1226,3.14976 1.8276,3.38376 2.4736,3.73876 C2.9556,4.00676 3.4056,4.36876 3.8896,4.80476 C4.6156,5.45476 5.4026,6.28976 6.5216,7.00076 C7.6366,7.71676 9.1056,8.23376 10.9136,8.22376 C12.5196,8.23076 13.8596,7.82976 14.9196,7.23076 C15.7156,6.78576 16.3526,6.25276 16.9076,5.75276 C17.7386,4.99576 18.4026,4.32276 19.1116,3.87976 C19.8256,3.44076 20.5616,3.15376 21.8226,3.14376 C22.9446,3.14976 23.6486,3.38376 24.2956,3.73776 C24.7776,4.00676 25.2276,4.36776 25.7106,4.80476 C26.4366,5.45476 27.2246,6.28976 28.3426,7.00076 C29.4576,7.71676 30.9266,8.23376 32.7336,8.22376 C34.3396,8.23076 35.6806,7.82976 36.7396,7.23076 C37.5356,6.78576 38.1736,6.25276 38.7286,5.75276 C39.5606,4.99576 40.2246,4.32276 40.9336,3.87976 C41.6466,3.44076 42.3826,3.15376 43.6446,3.14376 C44.7666,3.14976 45.4716,3.38376 46.1176,3.73876 C46.6006,4.00676 47.0506,4.36876 47.5336,4.80476 C48.2606,5.45476 49.0476,6.28976 50.1656,7.00076 C51.2806,7.71676 52.7496,8.23376 54.5576,8.22376 C56.1636,8.23076 57.5046,7.82976 58.5636,7.23076 C59.3596,6.78576 59.9966,6.25276 60.5526,5.75276 C61.3846,4.99576 62.0476,4.32276 62.7576,3.87976 C63.4706,3.44076 64.2076,3.15376 65.4686,3.14376 C66.5906,3.14976 67.2956,3.38376 67.9416,3.73876 C68.4246,4.00676 68.8746,4.36876 69.3576,4.80476 C70.0846,5.45476 70.8716,6.28976 71.9906,7.00076 C73.1046,7.71676 74.5746,8.23376 76.3826,8.22376 C77.9886,8.23076 79.3296,7.82976 80.3896,7.23076 C81.1866,6.78576 81.8226,6.25276 82.3786,5.75276 C83.2106,4.99576 83.8746,4.32376 84.5846,3.87976 C85.2986,3.44076 86.0356,3.15376 87.2976,3.14376 C88.4206,3.14976 89.1256,3.38376 89.7706,3.73876 C90.2536,4.00676 90.7036,4.36876 91.1876,4.80476 C91.9146,5.45476 92.7006,6.28976 93.8196,7.00076 C94.9356,7.71676 96.4036,8.23376 98.2116,8.22376 C99.8176,8.23076 101.1596,7.82976 102.2186,7.23076 C103.0156,6.78576 103.6516,6.25276 104.2076,5.75276 C105.0396,4.99576 105.7036,4.32376 106.4136,3.87976 C107.1276,3.44076 107.8636,3.15376 109.1256,3.14376 C110.2486,3.14976 110.9536,3.38376 111.6006,3.73876 C112.0826,4.00676 112.5326,4.36876 113.0166,4.80576 C113.7426,5.45476 114.5296,6.28976 115.6486,7.00176 C116.7646,7.71676 118.2326,8.23376 120.0416,8.22376 C121.6476,8.23076 122.9886,7.82976 124.0486,7.23076 C124.8456,6.78576 125.4826,6.25276 126.0386,5.75276 C126.8706,4.99576 127.5346,4.32376 128.2446,3.87976 C128.9586,3.44076 129.6956,3.15376 130.9586,3.14376 C132.0806,3.14976 132.7856,3.38376 133.4326,3.73876 C133.9146,4.00676 134.3646,4.36876 134.8496,4.80576 C135.5756,5.45476 136.3616,6.28976 137.4806,7.00176 C138.5966,7.71676 140.0656,8.23376 141.8736,8.22376 C143.4796,8.23076 144.8216,7.82976 145.8806,7.23076 C146.6776,6.78576 147.3146,6.25276 147.8706,5.75276 C148.7026,4.99576 149.3666,4.32376 150.0766,3.87976 C150.7906,3.44076 151.5276,3.15376 152.7896,3.14376 C153.9116,3.14976 154.6176,3.38376 155.2636,3.73876 C155.7456,4.00676 156.1956,4.36876 156.6796,4.80476 C157.4056,5.45476 158.1926,6.28976 159.3116,7.00076 C160.4266,7.71676 161.8956,8.23376 163.7036,8.22376 C165.3096,8.23076 166.6506,7.82976 167.7096,7.23076 C168.5066,6.78576 169.1446,6.25276 169.6986,5.75276 C170.5306,4.99576 171.1946,4.32276 171.9046,3.87976 C172.6186,3.44076 173.3546,3.15376 174.6166,3.14376 C175.7396,3.14976 176.4446,3.38376 177.0916,3.73876 C177.5736,4.00676 178.0236,4.36876 178.5086,4.80576 C179.2346,5.45476 180.0216,6.28976 181.1416,7.00176 C182.2566,7.71676 183.7256,8.23376 185.5336,8.22376 C187.1406,8.23076 188.4816,7.82976 189.5416,7.23076 C190.3386,6.78576 190.9766,6.25276 191.5316,5.75276 C192.3636,4.99576 193.0286,4.32376 193.7386,3.87976 C194.4526,3.44076 195.1906,3.15376 196.4536,3.14376 C197.5766,3.14976 198.2816,3.38376 198.9286,3.73876 C199.4106,4.00676 199.8606,4.36876 200.3456,4.80576 C201.0716,5.45476 201.8586,6.28976 202.9786,7.00176 C204.0936,7.71676 205.5616,8.23376 207.3706,8.22376 C208.9786,8.23076 210.3196,7.82976 211.3796,7.23176 C212.1766,6.78676 212.8146,6.25376 213.3706,5.75276 C214.2036,4.99576 214.8676,4.32376 215.5786,3.88076 C216.2926,3.44076 217.0306,3.15376 218.2946,3.14376 C219.4186,3.14976 220.1246,3.38376 220.7716,3.73876 C221.2556,4.00676 221.7056,4.36876 222.1896,4.80576 C222.9166,5.45476 223.7046,6.28976 224.8246,7.00176 C225.9396,7.71676 227.4096,8.23376 229.2196,8.22376 L229.2196,5.08076 C228.0956,5.07476 227.3896,4.83976 226.7416,4.48676 C226.2586,4.21676 225.8086,3.85576 225.3236,3.41776 C224.5976,2.76976 223.8096,1.93476 222.6886,1.22276 C221.5736,0.50676 220.1036,-0.00924 218.2946,-0.00024 C216.6866,-0.00524 215.3456,0.39476 214.2856,0.99376 C213.4886,1.43876 212.8516,1.97076 212.2946,2.47076 C211.4616,3.22876 210.7976,3.90076 210.0866,4.34376 C209.3726,4.78476 208.6346,5.07076 207.3706,5.08076 C206.2476,5.07476 205.5426,4.83976 204.8956,4.48676 C204.4136,4.21676 203.9636,3.85676 203.4786,3.41876 C202.7526,2.76976 201.9656,1.93576 200.8466,1.22276 C199.7306,0.50676 198.2616,-0.00924 196.4536,-0.00024 C194.8476,-0.00524 193.5056,0.39476 192.4456,0.99376 C191.6486,1.43876 191.0116,1.97076 190.4556,2.47076 C189.6226,3.22876 188.9586,3.90176 188.2486,4.34376 C187.5336,4.78476 186.7966,5.07076 185.5336,5.08076 C184.4106,5.07476 183.7056,4.83976 183.0596,4.48676 C182.5766,4.21676 182.1266,3.85676 181.6426,3.41876 C180.9156,2.76976 180.1286,1.93576 179.0096,1.22276 C177.8946,0.50676 176.4256,-0.00924 174.6166,-0.00024 C173.0116,-0.00524 171.6696,0.39476 170.6106,0.99376 C169.8136,1.43876 169.1766,1.97076 168.6216,2.47176 C167.7896,3.22976 167.1256,3.90176 166.4156,4.34376 C165.7016,4.78476 164.9656,5.07076 163.7036,5.08076 C162.5816,5.07476 161.8766,4.84076 161.2296,4.48676 C160.7476,4.21676 160.2976,3.85676 159.8136,3.41876 C159.0876,2.77076 158.3006,1.93576 157.1816,1.22276 C156.0666,0.50676 154.5976,-0.00924 152.7896,-0.00024 C151.1836,-0.00524 149.8426,0.39476 148.7826,0.99376 C147.9856,1.43876 147.3486,1.97076 146.7936,2.47076 C145.9606,3.22876 145.2966,3.90176 144.5876,4.34376 C143.8726,4.78476 143.1366,5.07076 141.8736,5.08076 C140.7516,5.07476 140.0456,4.84076 139.3996,4.48676 C138.9166,4.21676 138.4676,3.85676 137.9826,3.41876 C137.2566,2.76976 136.4696,1.93576 135.3506,1.22276 C134.2356,0.50676 132.7666,-0.00924 130.9586,-0.00024 C129.3526,-0.00524 128.0106,0.39476 126.9506,0.99376 C126.1546,1.43876 125.5176,1.97076 124.9616,2.47076 C124.1286,3.22876 123.4646,3.90176 122.7556,4.34376 C122.0406,4.78476 121.3036,5.07076 120.0416,5.08076 C118.9186,5.07476 118.2136,4.84076 117.5666,4.48676 C117.0846,4.21676 116.6356,3.85676 116.1506,3.41876 C115.4246,2.76976 114.6376,1.93576 113.5186,1.22276 C112.4026,0.50676 110.9346,-0.00924 109.1256,-0.00024 C107.5206,-0.00524 106.1786,0.39476 105.1196,0.99376 C104.3226,1.43876 103.6856,1.97076 103.1306,2.47176 C102.2986,3.22876 101.6346,3.90176 100.9246,4.34376 C100.2106,4.78476 99.4736,5.07076 98.2116,5.08076 C97.0896,5.07476 96.3846,4.84076 95.7376,4.48676 C95.2556,4.21676 94.8066,3.85676 94.3216,3.41876 C93.5956,2.77076 92.8086,1.93576 91.6896,1.22276 C90.5746,0.50676 89.1056,-0.00924 87.2976,-0.00024 C85.6906,-0.00524 84.3506,0.39476 83.2906,0.99376 C82.4946,1.43876 81.8566,1.97076 81.3016,2.47176 C80.4696,3.22876 79.8056,3.90176 79.0956,4.34376 C78.3816,4.78476 77.6446,5.07076 76.3826,5.08076 C75.2606,5.07476 74.5556,4.84076 73.9086,4.48676 C73.4266,4.21676 72.9766,3.85676 72.4926,3.41876 C71.7666,2.77076 70.9786,1.93576 69.8596,1.22276 C68.7456,0.50676 67.2756,-0.00924 65.4686,-0.00024 C63.8626,-0.00524 62.5216,0.39476 61.4626,0.99376 C60.6666,1.43876 60.0286,1.97076 59.4746,2.47176 C58.6426,3.22976 57.9786,3.90176 57.2696,4.34376 C56.5556,4.78476 55.8186,5.07076 54.5576,5.08076 C53.4356,5.07476 52.7296,4.84076 52.0846,4.48676 C51.6026,4.21676 51.1516,3.85676 50.6686,3.41876 C49.9416,2.77076 49.1546,1.93576 48.0356,1.22276 C46.9216,0.50676 45.4516,-0.00924 43.6446,-0.00024 C42.0386,-0.00524 40.6976,0.39476 39.6386,0.99376 C38.8426,1.43876 38.2046,1.97076 37.6496,2.47176 C36.8176,3.22976 36.1536,3.90176 35.4446,4.34376 C34.7306,4.78476 33.9946,5.07076 32.7336,5.08076 C31.6116,5.07476 30.9066,4.84076 30.2616,4.48676 C29.7786,4.21776 29.3296,3.85676 28.8456,3.41876 C28.1186,2.77076 27.3326,1.93576 26.2136,1.22276 C25.0996,0.50676 23.6306,-0.00924 21.8226,-0.00024 C20.2176,-0.00524 18.8766,0.39476 17.8166,0.99376 C17.0206,1.43876 16.3846,1.97076 15.8286,2.47176 C14.9976,3.22976 14.3336,3.90176 13.6246,4.34376 C12.9106,4.78476 12.1746,5.07076 10.9136,5.08076 C9.7916,5.07476 9.0866,4.84076 8.4396,4.48676 C7.9576,4.21676 7.5086,3.85676 7.0236,3.41876 C6.2976,2.77076 5.5106,1.93576 4.3916,1.22276 C3.2766,0.50676 1.8076,-0.00924 -0.0004,-0.00024 L-0.0004,3.14376 Z" id="Fill-1"></path>
            </g>
        </g>
    </g>
</svg>